<?xml version="1.0" encoding="utf-8"?>
<!-- Generator: Adobe Illustrator 19.0.0, SVG Export Plug-In . SVG Version: 6.00 Build 0)  -->
<svg version="1.1" id="Layer_1" xmlns="http://www.w3.org/2000/svg" xmlns:xlink="http://www.w3.org/1999/xlink" x="0px" y="0px"
	 viewBox="75 -9.5 30 30" style="enable-background:new 75 -9.5 30 30;" xml:space="preserve">
<style type="text/css">
	.st0{fill:#7A211C;}
</style>
<g>
	<path class="st0" d="M87.6,14L87.6,14C87.6,14,87.6,14,87.6,14z"/>
	<path class="st0" d="M90.5,3.5C90.5,3.5,90.5,3.5,90.5,3.5C90.5,3.5,90.5,3.5,90.5,3.5C90.5,3.5,90.5,3.5,90.5,3.5z"/>
	<path class="st0" d="M89.3,3.8L89.3,3.8L89.3,3.8z"/>
	<path class="st0" d="M91.5,6.7C91.5,6.7,91.5,6.7,91.5,6.7C91.5,6.7,91.5,6.7,91.5,6.7z"/>
	<path class="st0" d="M94.4,1C94.4,1,94.4,1,94.4,1L94.4,1z"/>
	<path class="st0" d="M93.5-0.3L93.5-0.3L93.5-0.3z"/>
	<path class="st0" d="M91.5,6.7L91.5,6.7L91.5,6.7L91.5,6.7z"/>
	<path class="st0" d="M92.7,17.7C92.7,17.7,92.7,17.7,92.7,17.7L92.7,17.7z"/>
	<path class="st0" d="M92.7,17.7L92.7,17.7L92.7,17.7L92.7,17.7z"/>
	<path class="st0" d="M86.3,2.7C86.4,2.7,86.3,2.7,86.3,2.7L86.3,2.7z"/>
	<path class="st0" d="M84.1,0.8L84.1,0.8C84.1,0.8,84.1,0.8,84.1,0.8z"/>
	<path class="st0" d="M85.4,2C85.4,2,85.4,2,85.4,2C85.4,2,85.4,2,85.4,2z"/>
	<path class="st0" d="M84.4-4.3C84.4-4.2,84.4-4.3,84.4-4.3L84.4-4.3z"/>
	<path class="st0" d="M84,1.4L84,1.4C84,1.4,84,1.4,84,1.4z"/>
	<path class="st0" d="M85.5,2L85.5,2C85.5,2,85.5,2,85.5,2z"/>
	<path class="st0" d="M85,1.6L85,1.6L85,1.6z"/>
	<path class="st0" d="M85,1.9C85,1.9,85,1.9,85,1.9L85,1.9z"/>
	<path class="st0" d="M84.3,2.2c0.2,0,0.3-0.1,0.3,0c0.2,0.1,0.7,0.2,0.8,0.2c0.1,0,0.3,0.1,0.3,0.1c0.1,0,0.3-0.2,0.1,0
		c0.1,0,0.3,0,0.3,0s0,0,0-0.1c0,0,0.1,0,0.2,0c0-0.1,0-0.1-0.1,0l0,0c-0.1-0.1-0.2-0.1-0.2,0c-0.1,0-0.1-0.1-0.1-0.2
		c0,0.1-0.1,0-0.1,0c0.1,0.1-0.6-0.3-0.4-0.3c0,0,0-0.1,0-0.1c-0.1,0.1-0.1,0.4-0.2,0c0,0-0.1,0-0.2,0.1C85.1,2,85.2,1.8,85.2,2
		c0,0,0-0.1,0-0.1c0,0-0.2,0.1-0.2,0.1c0,0,0-0.1,0-0.1s0,0-0.1,0c0,0,0.1-0.1,0.1-0.1c0,0-0.1,0.1-0.1,0h0c0,0-0.1,0.2-0.2,0.2
		c0,0,0.1-0.2,0.1-0.2c0-0.1-0.2,0.2-0.2,0.1c0-0.1,0-0.1,0-0.1c-0.1,0.1-0.1,0.1-0.1,0.2c-0.1,0.1,0-0.1,0-0.1l0.1-0.1
		c0-0.1-0.1-0.1-0.1-0.1c0,0-0.1,0.1,0,0v0c0,0,0,0,0,0v0c0,0-0.2,0.1-0.1,0c-0.1,0,0-0.2-0.1-0.1c0,0,0,0,0-0.1
		c-0.1,0-0.1,0.1-0.1,0.1c0,0-0.2-0.1-0.1-0.1c0,0,0-0.1,0-0.1c0,0-0.1,0.1-0.1,0.1c0-0.1,0-0.1,0.1-0.1c-0.1,0,0,0-0.1,0.1
		c0,0-0.1,0,0-0.1c0,0-0.2,0.1-0.2,0.1c0.1-0.1,0.2-0.1,0.2-0.1c0.3-0.2-0.1,0-0.1,0c0.1,0,0.1,0,0.1,0v0c0-0.1-0.1-0.2,0-0.1
		C83.9,1.1,83.9,1,84,1l-0.1,0c0,0,0.1-0.1,0.2-0.2c-0.1,0-0.1-0.1-0.1-0.1c0.2,0.2,0.4-0.3,0.4-0.4c0,0.1,0.2,0,0.2,0
		c0-0.1,0.1-0.1,0.1-0.1c0.1,0,0.1-0.1,0.1-0.2h0.1c0,0.1,0.1-0.2,0.1-0.2c0,0,0-0.1,0.1,0c0-0.1,0.1-0.1,0.1-0.1
		c0-0.1,0.2-0.2,0.2-0.2s0,0,0,0c0.1,0.1,0.3-0.3,0.3-0.3c0.1,0,0.2-0.1,0.2-0.2c0.3,0,0.3-0.3,0.3-0.4C86.1-1.2,86-1.3,86-1.4
		c0-0.1,0.1-0.1,0.1-0.3c0,0.3,0,0,0.1,0.1c0.1-0.3-0.3-0.5-0.3-0.7c0,0,0,0,0.1,0c-0.2-0.1-0.2-0.2-0.3-0.2c-0.1-0.1,0-0.3-0.3-0.2
		c0,0-0.2-0.1-0.2-0.2c0,0-0.1-0.1-0.2-0.2c0,0,0,0,0,0l0,0c0,0,0,0,0,0c-0.1-0.1-0.3-0.3-0.3-0.3c-0.2,0-0.4-0.6-0.4-1
		c0,0,0,0,0.1,0c0,0,0,0,0-0.1s0-0.1,0-0.1c0,0,0.1-0.1,0.1-0.1c0,0,0-0.1,0-0.1c0,0,0.1-0.2,0-0.3C84.6-4.7,85-5.2,85-5.3
		c0.1,0,0.2,0,0.3-0.1c0.2,0,1-0.2,1.2-0.4C86.5-5.9,86.6-6,86.6-6c-0.7,0.3-2,0.3-2.4,1v0.1c-0.7,1.2,0.3,2.2,1.4,3.1
		c0.3,0.2-0.6,1-0.8,1.1c-0.3,0.3-1,1-1.2,1.1c-0.1,0.2-0.4,0.4-0.4,0.4c-0.1,0.3-0.2,0.5,0,0.8C83.6,2,84,2,84.3,2.2z"/>
	<path class="st0" d="M86.2,2.6C86.2,2.6,86.2,2.7,86.2,2.6"/>
	<path class="st0" d="M85.5,2.1C85.5,2.1,85.5,2.1,85.5,2.1L85.5,2.1z"/>
	<path class="st0" d="M85.4,2C85.3,2,85.3,2,85.4,2L85.4,2z"/>
	<path class="st0" d="M85.1,1.8C85.1,1.8,85.1,1.8,85.1,1.8"/>
	<path class="st0" d="M85,1.9C85.1,1.8,85,1.9,85,1.9L85,1.9z"/>
	<path class="st0" d="M84.6,1.7C84.7,1.6,84.5,1.6,84.6,1.7L84.6,1.7z"/>
	<path class="st0" d="M85.6-0.6C85.5-0.6,85.5-0.6,85.6-0.6L85.6-0.6z"/>
	<path class="st0" d="M85.9-2.4C85.9-2.4,85.9-2.4,85.9-2.4"/>
	<path class="st0" d="M90.9-7.1C91-7.2,90.8-7.1,90.9-7.1L90.9-7.1z"/>
	<path class="st0" d="M89-5L89-5L89-5z"/>
	<path class="st0" d="M90.8-4L90.8-4L90.8-4z"/>
	<path class="st0" d="M89.6-4.7C89.6-4.7,89.6-4.8,89.6-4.7C89.6-4.8,89.6-4.8,89.6-4.7C89.6-4.8,89.6-4.8,89.6-4.7z"/>
	<path class="st0" d="M89.3-4.8C89.3-4.8,89.3-4.8,89.3-4.8C89.3-4.8,89.3-4.8,89.3-4.8z"/>
	<path class="st0" d="M89.3-6.6c0.1-0.1,0.1-0.1,0.1-0.1C89.3-6.7,89.3-6.6,89.3-6.6z"/>
	<path class="st0" d="M89.7-6.9L89.7-6.9C89.7-6.9,89.7-6.9,89.7-6.9z"/>
	<path class="st0" d="M90.8-7.2C90.8-7.2,90.8-7.1,90.8-7.2"/>
	<path class="st0" d="M89.7-6.9C89.7-6.9,89.7-6.9,89.7-6.9L89.7-6.9z"/>
	<path class="st0" d="M89.5-6.7C89.6-6.9,89.5-6.7,89.5-6.7L89.5-6.7z"/>
	<path class="st0" d="M89.2-6.6C89.2-6.6,89.2-6.6,89.2-6.6"/>
	<path class="st0" d="M89.2-6.5C89.2-6.6,89.1-6.4,89.2-6.5L89.2-6.5z"/>
	<path class="st0" d="M88.8-5.9C88.8-6,88.8-5.7,88.8-5.9L88.8-5.9z"/>
	<path class="st0" d="M88.8-5.5L88.8-5.5"/>
	<path class="st0" d="M90.7-2.3L90.7-2.3C90.7-2.3,90.7-2.3,90.7-2.3z"/>
	<path class="st0" d="M89.4-0.8C89.4-0.8,89.4-0.8,89.4-0.8"/>
	<path class="st0" d="M88.8,0.2C88.9,0.2,88.9,0.2,88.8,0.2L88.8,0.2z"/>
	<path class="st0" d="M93.9,2.6C93.9,2.6,94,2.6,93.9,2.6L93.9,2.6z"/>
	<path class="st0" d="M94.5-1.8L94.5-1.8L94.5-1.8z"/>
	<path class="st0" d="M94.7-2.5C94.7-2.4,94.7-2.4,94.7-2.5L94.7-2.5z"/>
	<path class="st0" d="M94.8,1.1C94.8,1.1,94.8,1.1,94.8,1.1C94.8,1.1,94.8,1.1,94.8,1.1z"/>
	<path class="st0" d="M94.7,2.3C94.7,2.2,94.7,2.2,94.7,2.3C94.7,2.3,94.7,2.3,94.7,2.3z"/>
	<path class="st0" d="M94,2.5L94,2.5C94,2.5,94,2.5,94,2.5z"/>
	<path class="st0" d="M93.7,0.8c0.2,0.1,0.2,0.1,0.2,0.2c0.1,0,0.2,0.2,0.2,0.2c0.2,0.1,0.1,0.3,0.3,0.3c0,0-0.1,0.2-0.1,0.1
		c0.1,0,0.2,0.2,0.1,0.2c0,0.1-0.1,0.4-0.1,0.4c-0.1,0.1-0.1,0.1-0.1,0.2c0,0.1,0.2,0.2,0,0c0,0,0,0.1,0,0.2c0,0,0,0,0.1,0.1
		c0,0-0.1-0.1,0,0.1c0,0,0.1,0,0,0l0,0c0.1-0.1,0.1-0.1,0-0.1c0-0.1,0.1-0.1,0.1,0c-0.1-0.1,0-0.1,0-0.1c0,0,0.2,0,0.1-0.2
		c0,0,0.2,0,0.2,0.1c0,0,0,0,0,0c-0.1,0-0.1-0.1-0.1-0.1c0-0.1,0.1-0.2,0.1-0.1c0,0-0.1-0.1-0.1-0.2c0.2,0,0.1,0.1,0.3,0.2
		c0-0.1,0-0.1-0.1-0.1c0,0,0.1-0.1,0.1-0.1c0.1,0,0,0.1,0.1,0.1c0,0-0.1-0.1,0-0.1l0,0c0,0-0.2,0-0.2-0.1c0,0,0.2,0,0.2,0
		c0,0-0.2-0.1-0.2-0.1c0,0,0.1,0,0.1,0c-0.1,0-0.2,0-0.2,0c-0.1-0.1,0.1,0,0.1-0.1l0.1,0c0.3-0.1-0.2-0.1,0.1-0.2
		c0,0-0.2-0.1-0.1-0.1c0,0,0.2-0.1,0-0.1c0,0,0,0,0-0.1c-0.1-0.1,0,0-0.1,0c0.1,0,0-0.2,0-0.1c0,0,0-0.1,0.1-0.1c0,0-0.1,0-0.1,0
		c0,0,0.1,0,0.2,0c-0.1,0-0.2,0-0.2-0.1c0,0-0.1,0-0.2,0c0.1-0.1,0.2,0,0.2-0.1c0.3-0.1-0.1-0.1-0.1-0.1c0.1,0,0.1-0.1,0.1-0.1
		c-0.1-0.2-0.3-0.1-0.3-0.3c0,0-0.1,0-0.1-0.1h0c0,0-0.1-0.1-0.1-0.1c0,0.1,0,0.1-0.1,0.1c0.2-0.2-0.3-0.2-0.3-0.2
		c0.1,0,0.1-0.1,0-0.1c-0.1,0-0.1,0,0,0c0-0.1-0.1-0.1-0.1,0v0c0.1,0-0.1,0,0-0.1c0-0.1-0.1,0-0.1,0c-0.1,0-0.1,0,0,0
		c0,0,0-0.1,0-0.1c0,0-0.1,0,0-0.1c0-0.1-0.1-0.1-0.1-0.1c0.1,0,0.1,0,0-0.1c0.2,0,0.2-0.2,0.2-0.2c0.1,0.1,0.1,0,0-0.1
		c0,0,0.1,0,0.1-0.1c0,0,0,0,0.1,0.1c0.1,0,0-0.3,0.2-0.3c0,0,0,0,0,0c0-0.2,0.1-0.1,0-0.2c0.1-0.1,0.2,0,0.1-0.2
		c0,0.1,0.1-0.1,0.1-0.1c0,0.1,0.1,0.1,0.2,0c0,0-0.1-0.1-0.1-0.1c0,0,0.2-0.2,0.2-0.2c0-0.1,0.3-0.3,0.1-0.6c0.1,0,0.1,0,0.1,0
		c0,0,0,0,0-0.1c0,0,0-0.1,0,0c0,0,0-0.1,0-0.1c0,0,0,0,0,0c0,0-0.2-0.4-0.4-0.5c0-0.1,0-0.1,0-0.2C94.4-3.5,94.2-4,94-4
		c-0.1,0-0.2,0-0.2,0c0.3,0.2,0.3,1,0.4,1.2h0c0,0-0.1,0.3,0.1,0.3c-0.2,0.1-0.7,1.1-0.7,1.2c0,0-0.4,0.4-0.4,0.5
		C93.1-0.7,93-0.5,93-0.2C93.1,0.3,93.6,0.6,93.7,0.8z M94.4,1C94.4,1,94.4,1,94.4,1L94.4,1z M93.5-0.3L93.5-0.3L93.5-0.3z"/>
	<path class="st0" d="M94,2.6C94,2.6,94,2.6,94,2.6"/>
	<path class="st0" d="M94.5,2.3C94.6,2.3,94.6,2.3,94.5,2.3L94.5,2.3z"/>
	<path class="st0" d="M94.7,2.2C94.7,2.2,94.7,2.1,94.7,2.2L94.7,2.2z"/>
	<path class="st0" d="M94.8,2C94.8,2,94.8,2,94.8,2"/>
	<path class="st0" d="M94.7,2C94.8,2,94.8,1.9,94.7,2L94.7,2z"/>
	<path class="st0" d="M94.9,1.7C94.9,1.7,94.8,1.6,94.9,1.7L94.9,1.7z"/>
	<path class="st0" d="M94.8,1.5C94.9,1.5,94.8,1.5,94.8,1.5L94.8,1.5z"/>
	<path class="st0" d="M93.6-0.4L93.6-0.4C93.5-0.4,93.5-0.4,93.6-0.4z"/>
	<path class="st0" d="M94.1-1.1C94.1-1.1,94.1-1.1,94.1-1.1"/>
	<path class="st0" d="M94.4-1.6L94.4-1.6C94.3-1.6,94.3-1.6,94.4-1.6z"/>
	<path class="st0" d="M93.7,3.8C93.8,3.8,93.8,3.8,93.7,3.8L93.7,3.8z"/>
	<path class="st0" d="M91.7,7L91.7,7L91.7,7z"/>
	<path class="st0" d="M82.1,6.3c-0.2-0.1,0.7,0.2,0.9,0.3c0.4,0.1,0.9-0.1,1.2,0.1c0.3,0,0.3,0,0.3,0c0.2,0,0.4,0.1,0.5,0l0.1,0
		c-0.2,0.1,0.1,0,0.2,0c-0.2,0.1,0.4,0.1,0.4,0c-0.1,0-0.1,0-0.2-0.1c0.2,0,0.2,0,0.1,0c0.1,0,0.1,0,0.2,0c0.1-0.1,0.3,0,0.4,0
		s0.4-0.1,0.5,0c-0.1,0.1,0,0.1,0,0.1c0.1,0.2,1.3,0,1.3,0c0,0,0.6-0.1,0.3,0c0.1,0,1,0,0.9,0c0.4,0,1,0,1.2-0.1c0,0.1,0.3,0,0.4,0
		c0.2,0,0.3-0.1,0.4,0c0,0,0,0,0,0l0,0v0c0,0,0.1,0.1,0.2,0.1c0.8,0,1.2-0.3,2-0.1c0,0-0.1,0-0.1,0.1c0.2,0,0.3-0.1,0.5-0.1
		c-0.1,0.2,0.2,0,0.3,0c0,0-0.1,0-0.1,0c-0.1,0,0.2-0.1,0.2-0.1c0.1,0,0.2,0,0.3,0c0.2,0.1,0.4,0.1,0.7-0.1c0,0,0.5-0.1,0.7-0.1
		c0,0,0,0,0.1,0.1c0.3,0,1.9-0.3,2.1-0.3C98.7,6,99,6,99.2,5.9c-0.1,1.5-1.4,2.7-1.9,3.9v0.1c-1.1,1.6-3.5,3-5.2,4.2
		c-0.3,0.2-0.6,0.2-0.9,0.1c-1,0-1.4-0.2-2.3-0.3c-0.8-0.2-2.7-0.7-3.1-1.1c-0.3-0.1-0.8-0.4-0.8-0.6c-0.2-0.1-0.6-0.5-0.7-0.7
		c-0.5-0.4-1.1-1.1-1.2-1.6c0,0-0.4-0.5-0.4-0.4c-0.1-0.1,0.1-0.1,0.1-0.1c-0.2-0.5-0.5-1.1-0.7-1.5c0,0-0.2-0.6-0.2-0.6
		c-0.1-0.2-0.4-0.3,0-0.1c0-0.1-0.2-0.5-0.2-0.6c0,0-0.1,0-0.1,0.1c-0.2,0,0-0.2,0.1-0.2c0-0.1-0.1-0.1-0.1-0.2c0,0,0,0.1,0,0.2h0
		c0,0.2,0,0.3,0.1,0.3c0,0.2,0.1,0.3-0.1,0.3c0.1,0,0.1,0.2,0.1,0.2c0,0,0.1,0.7,0.1,0.9c0,0,0,0,0,0c0,0,0,0.1,0,0.1
		c0,0.1,0,0.1,0,0.1c0.1,0,0.1-0.1,0.1-0.1c-0.1,0.2,0.5,0.7,0.5,0.7c-0.1,0-0.1,0.1-0.1,0.2c0,0-0.1-0.1-0.2-0.1
		c0.1,0.2,0.2,0.3,0.1,0.2c0,0.1,0.1,0.1,0.1,0.1c-0.1,0-0.2,0-0.2,0c0,0.1,0.2,0.1,0.1,0.1l0.1,0.1c0.1,0,0.1-0.1,0.1-0.1
		s0,0,0.1,0.1c0.1,0,0.2-0.1,0.1,0.1c0,0-0.2-0.1-0.2,0c0,0.1,0.1,0.1,0.1,0.1c-0.1-0.1,0.1-0.1,0.1,0c-0.1,0.1-0.1,0.1,0,0.2
		c0,0,0.3,0,0.3,0.1c-0.1,0-0.1,0.1-0.1,0.1l-0.1,0c-0.1,0.3,0.3,0.3,0.1,0.4c0.2,0.1-0.2,0.1,0.2,0.1c0.1,0.1,0,0.1,0,0.1
		c0.1,0.1-0.1,0.1,0.1,0.2c0,0,0,0.1,0,0.1c0.1,0,0.1,0,0.1,0.1c0-0.1,0-0.1,0-0.1c0,0,0.3,0.3,0.2,0.3c0,0,0,0.2,0,0.2
		c0.1,0,0.1,0,0.2,0c0,0.1-0.1,0.1-0.1,0.1c0.1,0,0.4,0.2,0.4,0.3c0,0-0.1,0-0.1,0c0.1,0.2,0.3,0,0.4,0c0.1,0.1-0.2,0,0,0.1
		c0,0.1-0.3,0-0.2,0.1c-0.2,0,0,0.2,0,0.2c0.2-0.1,0.1,0.1,0.2,0.2c0.3,0.3,0.8,0.5,0.9,0.8c0.1,0.1,0.3,0.2,0.3,0.2l0,0
		c0.2,0,0.3,0.3,0.4,0.3c-0.2-0.2,0.1-0.1,0.1-0.1c-0.1,0.2,1.1,0.6,1.2,0.6c0.2,0,0.2,0,0.2,0c0.1,0.1,0.2,0.1,0.3,0.1l0.1,0.1
		c-0.1,0,0,0,0.1,0c0,0,0,0,0,0c0.1,0,0.3,0.1,0.3,0.1c-0.2-0.1,0-0.1,0,0c0.1,0,0.1,0,0.1,0.1c0,0,0.2,0.1,0.3,0.1
		c0.2,0,0.3,0.1,0.3,0.1c0,0.2,0.8,0.2,0.9,0.2c0,0,0.4,0,0.2,0.1c0,0,0.7,0.1,0.6,0.1c0.2,0.1,0.8,0,0.8,0c0,0.1,0.2,0,0.3,0
		c0.1,0,0.2,0,0.3,0c0,0,0,0-0.1,0c0,0.1,0.2-0.1,0.2,0.1c0.5-0.1,0.7-0.5,1.2-0.6c0,0,0,0,0,0.1c0,0,0.3-0.2,0.4-0.3
		c-0.1,0,0.1-0.1,0.1-0.1c0,0,0.1-0.1,0.1-0.1c0.2,0,0.3,0,0.4-0.3c0,0,0.3-0.3,0.4-0.3c0.1-0.1,1-0.8,1.1-0.8
		c0.1-0.2,0.3,0,0.3-0.3c0.2,0.1,1.1-1,1.3-1.2c0,0,0,0,0,0.1c0-0.1,0.1-0.1,0.1-0.1c0.1,0,0.1-0.1,0.1-0.1c0-0.1,0.2-0.1,0.2-0.1
		c0-0.1,0.1-0.2,0.1-0.2c0.4-0.2,0.9-1.3,0.9-1.7c0.1-0.1,0.2-0.3,0.3-0.4c0.4-0.4,0.9-1.7,0.7-2.3c0-0.1,0-0.2-0.1-0.3l0,0
		c0.7-0.9-0.8-1.1-1.5-1.2c0,0,0-0.1,0.1-0.1c-0.1,0-0.3-0.1-0.3-0.1c-0.2-0.1-0.2-0.1-0.2,0c-0.1,0-0.3-0.1-0.3-0.1
		c-0.1,0-0.3,0-0.3,0C96.6,4,96,4.1,95.5,4C95,4,94.4,3.8,94,4c-0.3-0.1-0.6-0.1-0.8-0.1c-0.1,0-0.1,0-0.2-0.1c0.1,0,0.1,0,0.1,0
		c0,0,0.1-0.1-0.1-0.1c0.1-0.2,0.3,0.1,0.2,0.1c0.1,0,0.2-0.1,0.3-0.1c-0.1,0-0.2,0-0.3,0v0c-0.3,0-0.4,0-0.4,0.1
		c-0.3,0-0.4,0-0.4-0.1c0,0.1-0.3,0.1-0.3,0.1c-0.1,0-0.2,0-0.3,0c-0.4-0.1-0.8-0.1-1.1-0.1c0,0,0,0-0.1,0c0,0,0,0,0,0
		c0,0-0.1,0-0.1,0c0,0-0.1,0-0.1,0c0,0,0,0,0,0c0,0-0.1,0-0.1,0c0-0.5-0.2-1-0.7-1.3h-0.1c-1-1,0.2-1.9,0.6-3c0-0.2,0.7-0.6,0.8-0.8
		C91-1.7,91.3-2,91.5-2.3C92-3.2,91.7-4,91.3-4.5c-0.2-0.1-0.5-0.4-0.5-0.4c-0.2,0-0.5-0.2-0.6-0.3c-0.3-0.1-0.5-0.3-0.7-0.3
		c0,0,0.1-0.3,0.1-0.2c-0.1-0.1-0.1-0.3,0-0.3c0.1-0.2,0.4-0.5,0.5-0.6c0.1,0,0.3-0.2,0.3-0.2c0.1-0.1,0-0.3,0.1,0
		c0.1,0,0.3-0.2,0.3-0.2s0,0,0-0.1c0,0,0.1-0.1,0.1-0.1c0,0-0.1,0-0.1,0l0,0c-0.2,0-0.2,0.1-0.1,0.1c-0.1,0.1-0.2,0.1-0.2,0
		C90.4-7,90.3-7,90.3-7c0.1,0-0.6,0.3-0.6,0.2c0,0-0.1,0-0.1,0c0,0.1-0.1,0.5-0.1,0.5c0-0.1-0.1-0.1-0.2,0c0,0,0-0.1,0-0.2
		c-0.1,0.1-0.1,0.2-0.2,0.2c0,0-0.1-0.2-0.1-0.1c0,0,0,0.2,0,0.1v0.1c0.1,0,0.2,0.1,0.1,0.2C89.1-6,89-6.2,89-6.2c0,0,0,0.1,0,0.1
		c0-0.1,0.2,0,0.1,0.1C89-6,89-6,88.9-6C89-5.9,89-5.9,89.1-5.9c0.1,0.2-0.1,0-0.1,0.1c-0.1,0-0.2,0.2-0.2,0.3l0,0
		C89-5.4,88.7-5.4,89-5.4c0,0.1,0,0.1-0.1,0c0,0.1-0.1,0.1,0,0.2c0,0,0,0.1,0,0.1C89.1-5,89.1-5,89.1-5s0,0,0-0.1
		c0,0,0.3,0.2,0.2,0.2c0,0,0.1,0.1,0.1,0.2c0,0,0.1-0.1,0.1-0.1c0,0.1,0,0.1-0.1,0.1c0.1-0.1,0.2,0,0.2,0c0,0,0.1-0.1,0.2,0
		c0.1,0,0.3-0.1,0.2-0.1c0,0.1-0.2,0.1-0.1,0.2c-0.1,0.1,0,0.1,0,0.1s0.1-0.1,0.1,0c-0.1,0.1,0,0.1,0,0.1c0.3,0.2,0.4,0.1,0.5,0.3
		c0,0.1,0.2,0,0.2,0.1l0,0c-0.1,0,0.1,0.1,0.2,0.2c0-0.1,0.1-0.1,0.1-0.1c-0.2,0.2,0.3,0.4,0.3,0.5c-0.1,0-0.1,0.2-0.1,0.1
		c0,0.1,0.1,0.1,0,0.1c0,0.1,0,0.1,0.1,0.2l0,0c-0.1,0,0,0.2,0,0.2c0,0,0.1,0.1,0,0.1c0.1,0-0.1,0.2-0.1,0.1c0,0.1-0.1,0.2-0.1,0.2
		s0,0,0,0c-0.1,0-0.2,0.4-0.2,0.4c-0.1,0-0.1,0.2-0.2,0.3c-0.2,0-0.4,0.3-0.4,0.4c-0.2-0.1-0.2,0.1-0.2,0.1c0,0-0.2,0.2-0.2,0.2
		c0.1-0.1,0,0.1-0.1-0.1c-0.2,0.2-0.2,0.5-0.4,0.6c0,0,0,0,0-0.1c-0.1,0.2-0.1,0.2-0.1,0.3c-0.1,0.1-0.3,0.1-0.2,0.3
		c0,0-0.1,0.2-0.2,0.2c-0.1,0.1-0.4,0.5-0.4,0.7c0.1,0.2-0.1,0.3-0.1,0.4c0,0.3,0.2,0.7,0.3,0.9c0,0.1,0,0.1,0.1,0.1
		c0,0,0,0.1,0,0.1c0,0,0.1,0.1,0.1,0.1c0,0.2,0.6,0.7,0.8,0.8c0,0.1,0,0.2,0.1,0.3c0,0,0,0.1,0,0.2c-0.3,0-0.5,0.1-0.7,0.1
		c0,0,0,0-0.1,0c0.2-0.1,0.4-0.1,0.5-0.1c-0.1,0-0.4,0-0.5,0.1c0,0-0.2,0-0.1,0c-0.1,0-0.1,0-0.1,0c-0.1,0-0.1,0-0.2,0
		c0.1-0.1,0.1-0.2,0.1-0.1c-0.1,0-0.2,0.1-0.2,0l-0.1,0c0,0.1,0.1,0.1,0.1,0.1c-0.1,0.1-0.2,0.1-0.3,0.1c0,0,0,0,0.1,0
		c0.1,0.2-0.3,0-0.3,0s0.2,0,0.2-0.1c-0.1,0-0.1-0.1,0-0.1c-0.1,0-0.2,0-0.3,0.1c0.1,0,0.1,0,0.1,0.1c-0.1,0.1-0.7,0.2-0.7,0.1
		l0.1-0.1c-0.2-0.1-0.3-0.1-0.5-0.1c0,0,0,0.1-0.1,0.1c0,0-0.1,0,0,0l0,0l0,0l0,0c-0.1,0-0.2,0.1-0.1-0.1c-0.1,0-0.5,0.3-0.3,0.1
		c-0.1,0-0.1-0.1-0.2,0c0,0-0.2,0-0.2,0c-0.1,0.1-0.1,0.1-0.2,0.1c0.1,0,0.1,0,0.2,0l-0.5,0.1c0,0-0.3,0-0.3-0.1
		c0,0.1,0,0.1-0.1,0.2c-0.2,0,0-0.1,0-0.2c-0.1,0.1-0.5,0.3-0.7,0.3c0,0,0.1-0.1,0.1-0.1c-0.1,0-0.3,0.2-0.3,0.3c0,0-0.1,0-0.1,0
		c-0.1-0.1,0.3-0.3,0-0.2c0.1-0.2-0.2,0-0.2,0c0,0,0,0,0.1,0c-0.1,0.1-0.2,0.1-0.3,0.1c0.1-0.1-0.2-0.1-0.1-0.1
		c-0.6,0.1-1.3,0.4-1.7,0.6h-0.1c-0.3,0-0.5,0.5-0.5,0.7C81.5,5.9,81.7,6.1,82.1,6.3z M87.6,14C87.6,14,87.6,14,87.6,14
		C87.6,14,87.6,14,87.6,14z M88.8-5.6C88.8-5.5,88.8-5.5,88.8-5.6C88.8-5.5,88.8-5.5,88.8-5.6z M89.3,3.8L89.3,3.8L89.3,3.8z
		 M82.6,5.2C83,5,83.8,4.8,84.1,4.8c1-0.3,2.2-0.5,3.2-0.5c0.3-0.1,0.9-0.3,0.9-0.2c0.5,0,1.1-0.1,1.6-0.1c0,0.3,0,0.7,0.1,0.8
		C90,4.8,90,4.9,90.1,5c0-0.3,0.1-0.7,0.1-1c0.2,0,0.4,0,0.6-0.1c0.1,0,0.1,0,0.2,0c0.6,0.1,1.3,0.2,1.9,0.2c1,0.1,2.3,0.5,3.2,0.4
		l0.1,0c0.6,0.1,2.1,0.3,2.8,0.8l0,0c-0.9,0.5-2.2,0.5-3.2,0.6c-1,0.1-2.2,0.3-3.1,0.3c-0.3,0.1-0.8,0-1,0c-0.6,0-1.4-0.1-2-0.1
		c-0.2,0-0.5,0-0.9,0c-0.2,0-1.1,0-1.4,0c-1.2,0-2.5-0.1-3.6-0.2c-0.4-0.1-1.5-0.2-1.5-0.3C81.8,5.5,82.5,5.1,82.6,5.2z"/>
	<path class="st0" d="M85.3,3.9L85.3,3.9C85.3,3.9,85.3,3.9,85.3,3.9z"/>
	<path class="st0" d="M91.5,6.7L91.5,6.7C91.5,6.7,91.5,6.7,91.5,6.7C91.5,6.7,91.5,6.7,91.5,6.7C91.5,6.7,91.5,6.7,91.5,6.7z"/>
	<path class="st0" d="M90.6,3.5C90.5,3.5,90.5,3.5,90.6,3.5C90.5,3.5,90.5,3.5,90.6,3.5L90.6,3.5z"/>
	<path class="st0" d="M98,4.4L98,4.4C98,4.4,98,4.4,98,4.4z"/>
	<path class="st0" d="M97.9,4.4L97.9,4.4L97.9,4.4z"/>
	<path class="st0" d="M93.5,3.8C93.5,3.8,93.4,3.7,93.5,3.8L93.5,3.8z"/>
	<path class="st0" d="M89.2,3.5C89.2,3.5,89.2,3.5,89.2,3.5"/>
	<path class="st0" d="M87.6,3.6C87.6,3.6,87.2,3.7,87.6,3.6L87.6,3.6z"/>
	<line class="st0" x1="87" y1="3.8" x2="87" y2="3.8"/>
	<line class="st0" x1="87" y1="3.8" x2="87" y2="3.8"/>
	<path class="st0" d="M88.4,6.8L88.4,6.8C88.4,6.7,88.4,6.8,88.4,6.8z"/>
	<path class="st0" d="M94,6.7C94.1,6.7,94,6.7,94,6.7L94,6.7z"/>
	<path class="st0" d="M97,6.3L97,6.3C97,6.3,96.9,6.3,97,6.3z"/>
	<path class="st0" d="M83.3,11.2C83.3,11.2,83.3,11.2,83.3,11.2C83.3,11.2,83.3,11.2,83.3,11.2z"/>
	<path class="st0" d="M93.3,13.9L93.3,13.9L93.3,13.9C93.2,13.9,93.2,13.9,93.3,13.9z"/>
	<path class="st0" d="M82.1,8.9c0-0.1-0.1-0.1-0.1-0.2C82,8.7,82.1,8.8,82.1,8.9z"/>
	<path class="st0" d="M81.7,6.4L81.7,6.4L81.7,6.4z"/>
	<path class="st0" d="M82,8.7L82,8.7C82,8.6,82,8.7,82,8.7z"/>
	<path class="st0" d="M97,10.9L97,10.9C97,10.9,97,10.9,97,10.9z"/>
	<path class="st0" d="M81.8,8.1C81.8,8.1,81.8,8.1,81.8,8.1C81.8,8.1,81.8,8.1,81.8,8.1z"/>
	<path class="st0" d="M81.7,6.1C81.7,6.1,81.6,6.3,81.7,6.1L81.7,6.1z"/>
	<path class="st0" d="M82,8.5l-0.1-0.1C81.9,8.4,82,8.5,82,8.5z"/>
	<path class="st0" d="M82.1,8.9C82,8.9,82,8.9,82.1,8.9"/>
	<path class="st0" d="M82.1,8.9C82.1,9,82.2,9.2,82.1,8.9L82.1,8.9z"/>
	<path class="st0" d="M82.5,9.9C82.4,9.9,82.7,10.1,82.5,9.9L82.5,9.9z"/>
	<path class="st0" d="M82.7,10.2C82.7,10.3,82.7,10.3,82.7,10.2"/>
	<path class="st0" d="M82.7,10.2C82.7,10.3,82.7,10.3,82.7,10.2L82.7,10.2z"/>
	<path class="st0" d="M89.6,14.5C89.5,14.5,89.5,14.5,89.6,14.5L89.6,14.5z"/>
	<path class="st0" d="M93.1,14.1C93.2,14,93.1,14.1,93.1,14.1L93.1,14.1z"/>
	<path class="st0" d="M94.7,12.9L94.7,12.9C94.6,12.9,94.6,12.9,94.7,12.9z"/>
	<path class="st0" d="M84.5,12.6C84.6,12.6,84.6,12.6,84.5,12.6L84.5,12.6z"/>
	<path class="st0" d="M102.5,15.1c0-0.1,0-0.3,0-0.3c0,0-0.1-0.3-0.1-0.3c-0.2-0.7-2-1.3-2.7-1.2c-0.2-0.1-0.6-0.1-0.7-0.2
		c-0.9-0.3-2.8-0.6-3.7-0.3c-0.2,0-0.3,0.1-0.5,0.2c2.4-0.2,4.8,0.5,6.8,1.3c0.1,0,0.1,0.1,0,0c1.4,1.2-1.3,1.8-2.1,2
		c-1.8,0.4-4,0.8-5.8,0.8c-0.3,0.1-0.7,0-1,0c-0.5,0-1.3-0.1-2-0.1c-0.2,0-0.4,0-0.9,0c-0.2,0-1.1,0-1.4-0.1
		c-1.1-0.1-2.4-0.3-3.3-0.4c-0.5-0.1-1.7-0.1-1.8-0.2c-0.4,0-1.5-0.2-1.6-0.3c-0.4,0-1.2-0.2-1.5-0.3c-0.7-0.1-2.6-0.5-1.6-1.3
		c0.1-0.3,0.6-0.6,0.6-0.5c0.8-0.3,1.6-0.6,2.3-0.9c0.3-0.1,0.8-0.2,1-0.2c0.2-0.1,0.5-0.4,0.2,0c0.2,0,0.8-0.1,0.9-0.2
		c0,0,0-0.1-0.1-0.1c0.1-0.2,0.3,0.1,0.2,0.1c0.1-0.1,0.2-0.1,0.3-0.2c-0.1,0-0.2,0-0.3,0v0c-0.2,0.1-0.4,0-0.4,0.1
		c-0.2,0-0.4,0.1-0.4-0.1c0,0.1-0.3,0.1-0.3,0.1c-0.1,0-0.3,0-0.5,0.1c0,0-0.6,0.1-0.8,0.1c0,0,0,0,0,0c-0.1,0-0.1,0-0.1,0
		c-0.1,0-0.2,0-0.2,0c0,0.1,0,0.1,0.1,0.1c-0.3,0.1-0.9,0.3-1,0.4c0.1,0.3-0.1,0-0.3,0.1c0-0.1,0.5-0.3,0.6-0.3
		c-0.1,0-0.3,0.1-0.5,0.2c0,0-0.2,0.1-0.1,0c-0.1,0-0.1,0-0.1,0c-0.1,0-0.1,0.1-0.2,0.1c0-0.1,0.1-0.3,0-0.2c-0.1,0-0.1,0.2-0.2,0.1
		l-0.1,0.1c0,0.1,0.1,0.1,0.2,0c-0.1,0.1-0.1,0.1-0.2,0.2c0,0,0.1,0,0.1,0c0.1,0.1-0.3,0.1-0.3,0.1s0.2-0.1,0.2-0.1
		c-0.1,0-0.1,0-0.1-0.1c-0.1,0-0.2,0.1-0.2,0.2c0.1,0,0.1,0,0.1,0c0,0.1-0.3,0.3-0.4,0.3c-0.1,0,0,0.2-0.2,0.2l0.1-0.2
		c-0.2,0.1-0.3,0.2-0.4,0.3c0,0,0,0.1,0,0.1c0,0,0,0.1,0,0c0,0.1-0.1,0.1-0.1,0.1v-0.1c0,0.1,0,0.3,0,0.4l0,0c0,0.2,0,0.2,0,0.4l0,0
		c0,0.1,0.1,0.2,0.1,0.3c0.1,0,0.2,0.1,0.3,0.2c0,0-0.2-0.2-0.2-0.2c0.2,0,0.4,0.3,0.5,0.3c0,0,0.2,0.2,0.2,0.2
		c0-0.1,0.1-0.1,0.2-0.1c0.2,0.1-0.1,0.1-0.1,0.2c0.1,0,0.6,0,0.7,0.1c0,0-0.1,0-0.1,0c0.1,0,0.3,0,0.4-0.1c0,0,0.1,0,0.1,0
		c0.1,0.1-0.4,0.1-0.1,0.2c-0.2,0.1,0.2,0.1,0.2,0.1c0,0,0,0-0.1,0c0.1,0,0.2,0,0.3,0c-0.2,0,0.1,0.2,0.1,0.1
		c0.6,0.2,1.3,0.1,1.7,0.3c0.2,0.1,0.4,0,0.6,0.1l0,0c0.2,0,0.5,0.2,0.8,0.2c-0.1,0,0-0.1,0-0.1c0.5,0.3,1.5,0.2,2.1,0.4
		c0.3,0,0.3,0,0.3,0c0.2,0,0.4,0.1,0.5,0l0.1,0c-0.2,0.1,0.1,0,0.2,0h0c0,0,0,0,0.1,0c0.3,0,0.3,0.1,0.3,0c0.2,0,0.2,0,0.1,0
		c0.1,0,0.1,0,0.2,0c0.1-0.1,0.3,0.1,0.4,0.1c0.1,0,0.4,0,0.5,0c-0.1,0.1,0,0.1,0,0.1c0.1,0.2,1.3,0.1,1.3,0.1c0,0,0.6,0,0.3,0.1
		c0.1,0.1,1,0,0.9,0c0.4,0,1,0,1.2,0c0,0.1,0.3,0,0.4,0c0.2,0,0.3,0,0.4,0c0,0,0,0,0,0c0,0,0,0,0,0c0,0,0,0,0,0c0,0,0.1,0.1,0.1,0.1
		c0.8,0,1.2-0.3,2-0.2c0,0-0.1,0-0.1,0.1c0.2,0,0.3-0.1,0.5-0.1c-0.1,0.2,0.2,0,0.3,0c0,0,0,0-0.1,0c-0.1,0,0.2-0.1,0.2-0.1
		c0.1,0,0.2,0,0.3,0c0.2,0.1,0.4,0.1,0.7-0.1c0,0,0.5-0.1,0.7-0.1c0,0,0,0,0.1,0.1c0.3,0,1.9-0.3,2.1-0.3c0.7-0.4,2.4-0.2,3-1.4
		c0.1-0.1,0,0.2,0,0.1c-0.1,0,0.1-0.3,0.1-0.3C102.5,15.2,102.6,15.2,102.5,15.1z"/>
	<path class="st0" d="M81.4,12.8C81.4,12.8,81.4,12.8,81.4,12.8C81.4,12.8,81.4,12.8,81.4,12.8z"/>
	<path class="st0" d="M92.9,17.7C92.8,17.7,92.8,17.7,92.9,17.7L92.9,17.7z"/>
	<path class="st0" d="M86.7,17.5C86.6,17.5,86.6,17.5,86.7,17.5L86.7,17.5z"/>
	<path class="st0" d="M78.9,16.1L78.9,16.1L78.9,16.1z"/>
	<path class="st0" d="M92.7,17.7L92.7,17.7C92.7,17.7,92.7,17.7,92.7,17.7C92.7,17.7,92.7,17.7,92.7,17.7
		C92.7,17.7,92.7,17.7,92.7,17.7z"/>
	<path class="st0" d="M84.3,12.6C84.3,12.6,84.1,12.5,84.3,12.6L84.3,12.6z"/>
	<path class="st0" d="M80.8,13l0.2-0.1C80.9,12.9,80.8,12.9,80.8,13z"/>
	<path class="st0" d="M80.1,13.1C80.1,13,80.1,13,80.1,13.1"/>
	<path class="st0" d="M78.5,13.9c0,0,0.1-0.1,0.1-0.1"/>
	<path class="st0" d="M89.6,17.7L89.6,17.7C89.6,17.7,89.6,17.7,89.6,17.7z"/>
	<path class="st0" d="M95.1,17.7C95.2,17.7,95.1,17.7,95.1,17.7L95.1,17.7z"/>
	<path class="st0" d="M98,17.3L98,17.3C98,17.2,98,17.2,98,17.3z"/>
	<path class="st0" d="M99.9,7.1C99.9,7.1,99.9,7.1,99.9,7.1L99.9,7.1z"/>
	<path class="st0" d="M100,7.2L100,7.2C100,7.2,100,7.2,100,7.2z"/>
	<path class="st0" d="M99.9,7.7C99.9,7.7,100,7.7,99.9,7.7C99.9,7.7,99.9,7.7,99.9,7.7z"/>
	<path class="st0" d="M98.9,10.2C98.9,10.2,98.9,10.2,98.9,10.2L98.9,10.2z"/>
	<path class="st0" d="M99.4,10.1L99.4,10.1C99.3,10.1,99.3,10.1,99.4,10.1z"/>
	<path class="st0" d="M99.4,10.1C99.4,10.1,99.3,10,99.4,10.1c-0.1,0-0.3,0-0.4,0.2c0,0,0-0.1,0-0.1s0,0,0,0s0,0,0,0c0,0,0,0-0.1,0
		c0,0,0,0.1,0,0c0,0-0.3,0.2-0.3,0.3c-0.1-0.1-0.1,0-0.1,0c-0.1,0-0.5,0-0.5,0.1c0,0.1,0,0.2,0,0.2c0.1-0.1,0.9-0.1,1-0.2v0
		c0,0,0.3,0,0.2-0.1c0.2,0.3,1.1-0.5,1.1-0.7c0-0.1,0.2,0.1,0.1-0.1c0.1,0.2,0.3-0.2,0.3-0.2c0.1,0.1,0.3-0.2,0.3-0.2
		c0.3-0.4,0.3-0.7,0.3-0.9c-0.1-0.2-0.1-0.3,0-0.3C101.1,8.2,101,8,101,8c-0.1-0.1-0.2-0.3-0.3-0.3c0,0,0-0.2,0-0.2
		c-0.1,0-0.3,0-0.1-0.1c0-0.1-0.3-0.3-0.3-0.2c-0.1-0.1-0.1-0.1-0.1-0.1c-0.1,0-0.2,0.2,0,0c0,0-0.1,0-0.1,0c0,0,0,0-0.1,0.1
		c0,0,0.1-0.2,0,0c0,0,0,0.1,0,0l-0.1,0.1c0,0.1,0.1,0.1,0.1,0c0.1,0,0,0.1,0,0.1c0.1-0.1,0.1,0,0.1,0l0,0c0,0,0,0,0,0.1
		c0.1,0,0.1,0.1,0.2,0c0.1,0.1-0.4,0.2-0.1,0.2c0,0,0,0,0,0c0,0,0.1-0.1,0.1-0.1c0.1,0,0.1,0.1,0,0.1c0,0,0.1,0,0.2-0.1
		c-0.1,0.1-0.1,0.1-0.2,0.2c0,0,0.2,0,0.1,0c-0.1,0.1-0.1,0.1-0.1,0.2c0,0,0.1-0.1,0,0h0c0,0,0.1-0.1,0.2-0.1c0,0-0.2,0.2-0.2,0.2
		s0.1-0.1,0.2-0.1c0,0-0.1,0.1-0.1,0.1c0.4-0.3,0.2-0.1,0.2-0.1h-0.2c-0.1,0.1-0.1,0.1,0,0.1c0-0.1,0.1-0.1,0,0c0,0,0.2-0.1,0.1,0
		c0,0-0.1,0.1,0,0c0,0,0,0,0,0c0.1,0,0,0,0.1-0.1c0,0,0,0,0,0.1c0,0-0.2,0.2,0.1,0c-0.1,0.2,0,0.1,0,0.1c0.1,0,0.4-0.1,0.2,0
		c-0.2,0.1-0.3,0.1-0.2,0.1c-0.3,0.1,0.1,0,0,0c-0.1,0-0.1,0-0.1,0c0,0.1,0.1,0.1,0.2,0.1c-0.3,0.1,0.1,0-0.1,0.1c0,0,0.1,0,0,0.1h0
		c-0.1,0,0,0.1,0,0.1c0.1,0,0.1,0,0.1,0c-0.3,0,0,0.2,0,0.2c-0.1,0-0.1,0-0.1,0c0,0.1,0,0.1,0,0.1c0,0,0,0.1,0,0.1h0
		c-0.1-0.1,0.1,0.1-0.1,0c0,0,0.1,0.1,0.1,0.1c0.1,0,0,0,0,0c0,0,0,0,0,0c0,0,0,0-0.1,0c-0.1,0,0,0.2,0,0.2c-0.1,0-0.1,0,0,0.1
		c-0.2-0.1-0.2,0.1-0.2,0.1c-0.1-0.1,0,0,0,0c0,0-0.1,0-0.1,0c0,0-0.1,0.3-0.2,0.2c0,0.2,0,0.1,0,0.2c0,0,0,0-0.1,0c0,0.1,0,0,0,0.2
		c0,0,0,0.1-0.1,0.1c0-0.1,0-0.1-0.1-0.1c0,0,0,0.1,0,0.1C99.5,10,99.4,10.1,99.4,10.1z"/>
	<path class="st0" d="M100.5,9L100.5,9L100.5,9z"/>
	<path class="st0" d="M99.9,7.2C99.9,7.2,99.9,7.1,99.9,7.2"/>
	<path class="st0" d="M100.1,7.7L100.1,7.7C100,7.7,100,7.7,100.1,7.7z"/>
	<path class="st0" d="M100,7.8C100,7.8,100,7.9,100,7.8"/>
	<path class="st0" d="M100.1,7.8C100,7.8,100.1,7.8,100.1,7.8L100.1,7.8z"/>
	<path class="st0" d="M100.1,8C100.1,8,100.2,8,100.1,8L100.1,8z"/>
	<path class="st0" d="M100.2,8C100.1,8.1,100.2,8,100.2,8L100.2,8z"/>
	<path class="st0" d="M100.3,9.2L100.3,9.2C100.3,9.2,100.3,9.2,100.3,9.2z"/>
	<path class="st0" d="M99.8,9.6L99.8,9.6"/>
	<path class="st0" d="M99.5,9.9C99.6,10,99.6,10,99.5,9.9L99.5,9.9z"/>
	<path class="st0" d="M100,5.4C99.9,5.4,100,5.5,100,5.4L100,5.4z"/>
	<path class="st0" d="M101.3,7.1L101.3,7.1C101.3,7.1,101.3,7.1,101.3,7.1z"/>
	<path class="st0" d="M100.5,6.3C100.5,6.3,100.5,6.2,100.5,6.3C100.5,6.3,100.5,6.3,100.5,6.3z"/>
	<path class="st0" d="M101.2,10C101.2,10,101.2,10,101.2,10L101.2,10z"/>
	<path class="st0" d="M100.1,5.6L100.1,5.6c0.1,0.2,0.1,0.2,0.1,0.1c0.1,0,0.1,0.1,0,0.2c0.1-0.1,0.1,0,0.1,0c0,0,0.1,0.2,0.3,0.2
		c0,0-0.1,0.2-0.1,0.2c0,0,0,0,0,0c0-0.1,0.1-0.1,0.1-0.1c0.1,0,0.2,0.1,0.1,0.2c0,0,0.1,0,0.2-0.1c-0.1,0.2-0.2,0.1-0.3,0.2
		c0.1,0,0.1,0,0.2,0c0,0,0,0.1,0.1,0.1c-0.1,0.1,0,0-0.1,0.1c0,0,0.1-0.1,0.1,0h0c0,0,0.1-0.2,0.2-0.1c0,0-0.1,0.2-0.2,0.2
		c0,0,0.2-0.1,0.2-0.1c0,0,0,0.1,0,0.1c0.1,0,0.1-0.1,0.2-0.2c0.1,0,0,0.1,0,0.1l-0.1,0c-0.1,0.3,0.2,0,0,0.2c0,0,0.2-0.1,0.1,0
		c0,0-0.1,0.1,0,0.1c0,0,0,0,0,0.1c0.1,0,0,0,0.1-0.1c0,0,0.1,0.1,0,0.1c0,0,0,0.1,0,0.1c0,0,0.1-0.1,0.1-0.1c0,0-0.1,0.1-0.1,0.1
		c0.1,0,0.2,0,0.2,0c0,0,0.1,0,0.2,0c-0.1,0.1-0.2,0-0.2,0.1c-0.3,0.1,0.1,0,0.1,0.1c-0.1,0-0.1,0.1-0.1,0.1
		c0.1,0.2,0.3,0.2,0.2,0.3c0,0,0.1,0.1,0,0.1h0c0,0,0,0.1,0.1,0.2c-0.3,0,0,0.4,0,0.4c-0.1,0-0.1,0.1-0.1,0.1c0,0.1,0,0.1,0,0.1
		c0,0.1,0,0.1,0,0.1l0,0c-0.1,0,0.1,0-0.1,0c0.1,0,0.1,0.1,0,0.1c0.1,0,0.1,0.1,0.1,0c0.1,0,0.1,0.1,0,0c0,0-0.1,0.1,0,0.1
		c0,0,0,0.2,0,0.1v0c-0.1,0-0.1,0.3-0.1,0.3c-0.1,0-0.1,0.1-0.1,0.2c-0.2,0-0.3,0.3-0.3,0.3c-0.1-0.1-0.1,0.1-0.1,0.1
		c0,0-0.1,0.1-0.1,0.1c0,0,0,0,0,0s0,0,0,0c-0.1,0.1-0.1,0.4-0.3,0.4c0,0,0,0,0-0.1c-0.1,0.2-0.1,0.1-0.1,0.3
		c-0.1,0.1-0.2,0.1-0.2,0.1c-0.3,0.2,0.1,0.1-0.1,0.2c0.1-0.1-0.3-0.2-0.2,0.1c0,0-0.4,0.1-0.3,0.1c-0.1,0.1-0.5,0.1-0.8,0.3
		c0,0,0-0.1,0-0.1s0,0-0.1,0c-0.1,0-0.1,0-0.1,0c0,0-0.1,0-0.1,0c0,0-0.1,0-0.1,0c-0.1,0-0.2,0.1-0.2,0.1c-0.1-0.2-0.5,0.1-0.6,0.2
		c-0.1-0.1-0.2,0-0.2,0c-0.1-0.1-0.9-0.1-1,0.1c-0.1,0.1-0.1,0.1-0.1,0.2c0.6-0.2,1.4,0.3,1.9-0.1l0-0.1c0.3-0.1,0.8-0.1,1.4-0.3
		c0.4-0.2,1.1-0.5,1.2-0.9c0,0,0.5-0.6,0.6-0.6c0.1-0.2,0.3-0.3,0.4-0.6c0.2-0.6,0.1-1.1,0.1-1.4c-0.1-0.2-0.1-0.4-0.1-0.4
		c-0.1-0.1-0.2-0.3-0.2-0.4c-0.3-0.2-0.5-0.5-0.6-0.7c-0.1,0-0.3,0-0.2-0.1c-0.1-0.1-0.5-0.3-0.6-0.3c-0.1-0.1-0.2-0.1-0.2-0.1
		c-0.1,0-0.3,0.2,0,0c0,0-0.2,0-0.2-0.1C100.2,5.7,100.2,5.7,100.1,5.6C100.1,5.7,100.2,5.7,100.1,5.6C100,5.7,100,5.7,100.1,5.6z"
		/>
	<path class="st0" d="M100.2,5.6L100.2,5.6C100.2,5.6,100.2,5.6,100.2,5.6z"/>
	<path class="st0" d="M99.1,11.2C99.1,11.2,99.1,11.2,99.1,11.2L99.1,11.2z"/>
	<path class="st0" d="M100,5.6C100,5.6,100,5.5,100,5.6"/>
	<path class="st0" d="M100.5,6.1C100.5,6.2,100.5,6.1,100.5,6.1L100.5,6.1z"/>
	<path class="st0" d="M100.6,6.2L100.6,6.2C100.6,6.3,100.6,6.3,100.6,6.2z"/>
	<path class="st0" d="M100.7,6.4C100.7,6.5,100.7,6.5,100.7,6.4"/>
	<path class="st0" d="M100.8,6.4C100.7,6.5,100.8,6.4,100.8,6.4L100.8,6.4z"/>
	<path class="st0" d="M101,6.7C100.9,6.7,101.1,6.7,101,6.7L101,6.7z"/>
	<path class="st0" d="M101.1,6.7C101.1,6.8,101.1,6.8,101.1,6.7L101.1,6.7z"/>
	<path class="st0" d="M101.6,9.3L101.6,9.3C101.6,9.4,101.6,9.4,101.6,9.3z"/>
	<path class="st0" d="M100.8,10.3L100.8,10.3"/>
	<path class="st0" d="M100.2,10.8C100.3,10.9,100.3,10.9,100.2,10.8L100.2,10.8z"/>
</g>
</svg>
