<?xml version="1.0" encoding="utf-8"?>
<!-- Generator: Adobe Illustrator 19.0.0, SVG Export Plug-In . SVG Version: 6.00 Build 0)  -->
<svg version="1.1" id="Layer_1" xmlns="http://www.w3.org/2000/svg" xmlns:xlink="http://www.w3.org/1999/xlink" x="0px" y="0px"
	 viewBox="-255 347 100 100" style="enable-background:new -255 347 100 100;" xml:space="preserve">
<style type="text/css">
	.st0{fill:#2980B9;}
</style>
<title>Artboard 1 Copy 87</title>
<desc>Created with Sketch.</desc>
<g>
	<g>
		<path class="st0" d="M-186.3,397.1c-1.2-1.1-3-1.1-4.2,0.1l-11.2,11.6v-58.2c0-1.6-1.3-3-3-3c-1.6,0-3,1.3-3,3v58.2l-11.2-11.6
			c-1.1-1.2-3-1.2-4.2-0.1s-1.2,3-0.1,4.2l16.2,16.8l0,0l0,0l0,0l0.1,0.1c0,0,0.1,0,0.1,0.1c0.1,0,0.1,0.1,0.2,0.1l0,0
			c0.1,0,0.2,0.1,0.2,0.1c0.1,0,0.1,0.1,0.2,0.1c0,0,0,0,0.1,0s0.2,0.1,0.3,0.1s0.2,0.1,0.2,0.1s0,0,0.1,0s0.2,0,0.3,0s0.2,0,0.3,0
			l0,0l0,0c0.1,0,0.2,0,0.3,0s0.2,0,0.3,0c0,0,0,0,0.1,0s0.2,0,0.2-0.1c0.1,0,0.2,0,0.3-0.1c0,0,0,0,0.1,0s0.1-0.1,0.2-0.1
			c0.1,0,0.2-0.1,0.2-0.1l0,0c0.1,0,0.1-0.1,0.2-0.1c0,0,0,0,0.1-0.1c0.1,0,0.1-0.1,0.2-0.1l0,0l0,0l0,0l16.2-16.8
			C-185.1,400.1-185.2,398.3-186.3,397.1"/>
		<path class="st0" d="M-222.5,370.8c-4,2-7.7,4.7-10.9,7.9c-6.6,6.7-10.6,15.5-11.3,25.1c-1.5,22,15,41,37,42.5s41-15,42.5-37
			c1.1-16.3-7.8-31.5-22.3-38.6c-1.5-0.7-3.2-0.1-3.9,1.4s-0.1,3.2,1.4,3.9c12.3,6,20,19,19,32.9c-1.3,18.7-17.5,32.8-36.2,31.5
			s-32.8-17.5-31.5-36.2c0.6-8.2,4-15.7,9.6-21.4c2.7-2.7,5.8-5,9.3-6.7c1.5-0.7,2.1-2.5,1.3-4C-219.2,370.7-221,370.1-222.5,370.8
			L-222.5,370.8z"/>
	</g>
</g>
</svg>
